<svg width="400" height="300" viewBox="0 0 400 300" fill="none" xmlns="http://www.w3.org/2000/svg">
  <!-- Background circles -->
  <circle cx="320" cy="60" r="40" fill="#E3F2FD" opacity="0.5"/>
  <circle cx="80" cy="240" r="50" fill="#BBDEFB" opacity="0.4"/>
  
  <!-- Desk/Table -->
  <rect x="50" y="200" width="300" height="15" rx="7" fill="#6EA2B3"/>
  <rect x="40" y="215" width="320" height="8" rx="4" fill="#4A7C89"/>
  
  <!-- Laptop -->
  <rect x="150" y="160" width="100" height="70" rx="5" fill="#1E3A8A"/>
  <rect x="155" y="165" width="90" height="55" rx="3" fill="#7BBDE8"/>
  <line x1="200" y1="230" x2="180" y2="260" stroke="#1E3A8A" stroke-width="4"/>
  <line x1="200" y1="230" x2="220" y2="260" stroke="#1E3A8A" stroke-width="4"/>
  
  <!-- Documents/Papers -->
  <rect x="60" y="170" width="60" height="40" rx="3" fill="#FFFFFF" stroke="#1E3A8A" stroke-width="2"/>
  <line x1="70" y1="180" x2="110" y2="180" stroke="#1E3A8A" stroke-width="2"/>
  <line x1="70" y1="190" x2="110" y2="190" stroke="#1E3A8A" stroke-width="2"/>
  <line x1="70" y1="200" x2="100" y2="200" stroke="#1E3A8A" stroke-width="2"/>
  
  <!-- Light bulb (idea) -->
  <circle cx="280" cy="140" r="20" fill="#FFF9C4"/>
  <path d="M 280 160 L 275 175 L 285 175 Z" fill="#FDD835"/>
  <rect x="275" y="175" width="10" height="5" rx="2" fill="#C0A000"/>
  
  <!-- Person 1 (Left) -->
  <circle cx="100" cy="120" r="20" fill="#FFB74D"/>
  <path d="M 100 140 Q 80 160 85 180 L 115 180 Q 120 160 100 140 Z" fill="#0A4174"/>
  <circle cx="95" cy="115" r="3" fill="#000000"/>
  <circle cx="105" cy="115" r="3" fill="#000000"/>
  <path d="M 95 125 Q 100 128 105 125" stroke="#000000" stroke-width="2" fill="none"/>
  
  <!-- Person 2 (Center) -->
  <circle cx="200" cy="110" r="22" fill="#90CAF9"/>
  <path d="M 200 132 Q 178 155 183 180 L 217 180 Q 222 155 200 132 Z" fill="#1E3A8A"/>
  <circle cx="194" cy="105" r="3" fill="#000000"/>
  <circle cx="206" cy="105" r="3" fill="#000000"/>
  <path d="M 194 115 Q 200 118 206 115" stroke="#000000" stroke-width="2" fill="none"/>
  
  <!-- Person 3 (Right) -->
  <circle cx="300" cy="125" r="18" fill="#A5D6A7"/>
  <path d="M 300 143 Q 282 160 287 180 L 313 180 Q 318 160 300 143 Z" fill="#2E7D32"/>
  <circle cx="295" cy="120" r="3" fill="#000000"/>
  <circle cx="305" cy="120" r="3" fill="#000000"/>
  <path d="M 295 130 Q 300 133 305 130" stroke="#000000" stroke-width="2" fill="none"/>
  
  <!-- Pointing hands/collaboration -->
  <path d="M 120 150 Q 150 140 180 150" stroke="#0A4174" stroke-width="3" fill="none"/>
  <path d="M 220 150 Q 250 145 280 155" stroke="#1E3A8A" stroke-width="3" fill="none"/>
  
  <!-- Decorative stars -->
  <path d="M 320 100 L 323 107 L 330 107 L 325 112 L 327 119 L 320 115 L 313 119 L 315 112 L 310 107 L 317 107 Z" fill="#FDD835"/>
  <path d="M 70 80 L 72 85 L 77 85 L 73 89 L 75 94 L 70 91 L 65 94 L 67 89 L 63 85 L 68 85 Z" fill="#FDD835"/>
</svg>
